<svg width="189" height="173" viewBox="0 0 189 173" fill="none" xmlns="http://www.w3.org/2000/svg">
<path d="M51.4985 6.98272C56.1462 17.3254 60.4504 31.5122 50.949 40.5964C44.4926 46.7516 34.9912 48.6508 27.2069 52.5865C12.2335 60.1605 3.55631 76.6813 1.42707 92.7902C-0.770854 109.334 3.16709 126.861 12.4625 140.774C17.0186 147.615 22.9255 153.565 29.9085 157.912C36.9144 162.283 45.0192 165.143 52.9409 167.386C70.5929 172.351 89.3897 173.838 107.637 172.145C125.564 170.475 143.72 165.692 159.014 155.899C166.065 151.368 172.59 145.716 177.627 138.966C183.671 130.843 187.014 120.981 188.25 111.004C190.769 90.5935 185.022 69.0387 174.719 51.4195C164.417 33.8691 146.696 22.5196 126.182 22.0391C115.467 21.7874 105.187 24.5561 94.9761 27.4621C89.8019 28.9265 84.0781 30.2766 79.087 27.5307C74.1646 24.8307 71.6461 19.6593 69.8145 14.6024C68.2576 10.232 67.1816 5.70133 65.6018 1.35375C65.3271 0.575763 64.6631 0.209645 63.8389 0.346937C60.107 1.0334 56.3293 1.21645 52.8035 2.77242C51.1322 3.52753 52.5745 5.99879 54.2459 5.24368C57.4741 3.80212 61.1602 3.73348 64.5944 3.09279C63.9992 2.74956 63.4268 2.4292 62.8315 2.08597C65.785 10.1862 66.9526 19.8424 73.1114 26.3638C80.7812 34.464 90.3971 31.741 99.8528 28.9952C109.927 26.0892 120.39 24.1213 130.921 25.1968C140.972 26.2265 150.611 30.1393 158.418 36.5463C174.422 49.6576 183.03 71.693 185.366 91.8291C186.556 102.126 186.03 112.72 182.801 122.605C179.779 131.85 174.307 139.698 167.095 146.197C153.862 158.141 136.439 164.64 119.107 167.752C100.952 171.001 81.9946 170.681 63.9305 167.088C47.7666 163.862 31.0532 158.278 19.8118 145.648C8.61611 133.063 3.1213 115.718 3.78526 98.9912C4.44921 82.745 11.7298 64.9886 26.2911 56.4078C33.7319 52.0145 42.5007 50.2297 49.6898 45.3329C57.5199 39.9785 60.6107 30.9631 59.2599 21.7187C58.4357 16.0898 56.3522 10.7583 54.0169 5.6098C53.2156 3.84789 50.7429 5.31233 51.4985 6.98272Z" fill="#E1D4DB"/>
<path d="M58.9851 13.5043C61.1372 19.8197 63.8388 25.975 65.4186 32.4734C66.197 35.6312 66.6549 38.8804 66.5404 42.1525C66.3802 45.8365 65.1896 49.3146 64.022 52.7927C60.2672 63.7532 53.9253 73.661 50.8802 84.8732C45.2252 105.787 51.4755 129.173 64.5944 146.06C71.9208 155.487 81.5596 162.924 92.801 167.065C94.541 167.706 95.2737 164.937 93.5566 164.297C73.2487 156.791 58.9393 137.914 53.765 117.32C51.0176 106.359 50.8573 94.7811 54.1313 83.9122C57.3824 73.089 63.5412 63.4328 67.067 52.7011C69.2421 46.0882 69.9747 40.0474 68.5323 33.1599C67.0441 26.1351 64.0678 19.5222 61.7554 12.7492C61.1601 11.0101 58.3898 11.7424 58.9851 13.5043Z" fill="#E1D4DB"/>
<path d="M75.1491 42.8161C93.9688 70.3202 117.619 96.2913 127.075 128.944C129.822 138.417 131.105 148.188 130.647 158.027C130.555 159.857 133.417 159.857 133.509 158.027C135.111 122.514 114.231 91.8979 94.2206 64.4624C88.6342 56.7969 82.9563 49.2001 77.5988 41.3745C76.5914 39.8643 74.1188 41.3059 75.1491 42.8161Z" fill="#E1D4DB"/>
<path d="M73.4776 66.888C68.9215 99.2432 82.0403 132.514 102.073 157.524C103.218 158.965 105.233 156.929 104.088 155.51C84.7649 131.392 71.8292 98.8771 76.225 67.6661C76.4998 65.8584 73.7523 65.0804 73.4776 66.888Z" fill="#E1D4DB"/>
<path d="M88.1305 91.6459C95.869 102.584 100.15 115.58 102.486 128.669C102.806 130.477 105.576 129.722 105.256 127.914C102.875 114.619 98.479 101.325 90.6031 90.2043C89.55 88.717 87.0544 90.1357 88.1305 91.6459Z" fill="#E1D4DB"/>
<path d="M90.9235 42.5875C103.722 50.0699 116.245 58.3761 126.159 69.5196C136.759 81.464 142.895 95.8797 147.291 111.073C150.359 121.668 152.832 133.063 149.81 143.932C149.306 145.717 152.076 146.472 152.58 144.687C155.19 135.26 153.908 125.397 151.618 116.039C149.466 107.344 146.742 98.6484 143.033 90.4795C136.782 76.6359 127.235 64.8974 115.375 55.4472C108.141 49.7038 100.356 44.7384 92.3888 40.0934C90.7861 39.1781 89.3437 41.6493 90.9235 42.5875Z" fill="#E1D4DB"/>
<path d="M102.348 38.1942C117.779 37.8281 133.004 42.0841 145.459 51.3056C159.608 61.8084 168.743 77.3682 170.735 94.8729C171.926 105.444 171.147 116.13 171.125 126.748C171.125 128.578 173.986 128.601 173.986 126.748C174.032 107 175.978 86.5439 165.218 68.9019C156.953 55.3557 144.36 44.8758 129.41 39.4985C120.756 36.3866 111.529 35.1052 102.348 35.3111C100.493 35.3797 100.493 38.24 102.348 38.1942Z" fill="#E1D4DB"/>
<path d="M139.484 65.2404C146.627 72.4482 152.008 81.3951 152.809 91.692C152.946 93.5225 155.808 93.5225 155.671 91.692C154.824 80.6171 149.237 70.9838 141.522 63.2268C140.217 61.8996 138.179 63.9361 139.484 65.2404Z" fill="#E1D4DB"/>
<path d="M104.386 62.9523C112.72 72.0822 119.405 82.4935 125.541 93.1793C126.457 94.7811 128.93 93.3395 128.014 91.7378C121.763 80.8459 114.918 70.2287 106.424 60.9386C105.165 59.5657 103.15 61.5793 104.386 62.9523Z" fill="#E1D4DB"/>
<path d="M136.828 118.762C139.049 125.375 141.247 131.896 140.583 138.967C140.422 140.797 143.284 140.797 143.445 138.967C144.131 131.644 141.865 124.825 139.575 117.984C139.003 116.268 136.233 117 136.828 118.762Z" fill="#E1D4DB"/>
<path d="M115.467 143.932C117.711 149.973 119.313 156.196 121.58 162.237C122.221 163.953 124.991 163.198 124.35 161.482C122.106 155.441 120.504 149.217 118.237 143.177C117.573 141.46 114.826 142.193 115.467 143.932Z" fill="#E1D4DB"/>
<path d="M46.919 53.5938C39.3179 65.2178 30.5033 76.6817 28.2138 90.7542C25.8098 105.559 28.8319 121.37 36.1583 134.39C40.4168 141.964 46.0719 148.669 52.5054 154.481C53.8791 155.716 55.8939 153.703 54.5202 152.467C39.9818 139.333 31.213 122.354 30.4117 102.676C30.0454 93.7517 31.7167 85.1481 35.6547 77.1165C39.4781 69.3366 44.6753 62.289 49.3917 55.0354C50.399 53.4794 47.9264 52.0607 46.919 53.5938Z" fill="#E1D4DB"/>
<path d="M18.5294 79.1071C16.2399 86.3607 13.8588 93.6829 13.1033 101.303C12.3249 109.083 13.7215 116.656 17.1557 123.681C17.957 125.329 20.4297 123.887 19.6284 122.24C16.3086 115.421 15.1867 108.099 16.0568 100.57C16.8581 93.477 19.1705 86.6353 21.2997 79.8622C21.8492 78.1003 19.1018 77.3452 18.5294 79.1071Z" fill="#E1D4DB"/>
</svg>
