<svg width="123" height="89" viewBox="0 0 123 89" fill="none" xmlns="http://www.w3.org/2000/svg">
<path d="M73.6402 0.909505C44.8692 4.03958 10.6353 19.9083 0.972127 49.3407C0.705054 50.1414 1.28775 50.9421 2.04041 51.209C10.1012 53.9751 19.4001 52.5678 27.6066 51.1362C37.4154 49.4377 46.4959 46.793 55.2122 41.8673C63.2486 37.33 69.4156 31.6764 74.4414 23.9119C76.9665 20.0296 79.1516 15.929 81.2396 11.8041C82.1622 9.96003 83.0848 8.09168 83.9832 6.22334C84.6144 4.91308 85.6827 3.50576 85.6827 2.02565C85.6827 1.15214 84.9786 0.569807 84.1774 0.521279C80.6326 0.23011 77.1607 0.836712 73.6402 0.909505C71.6978 0.958033 71.6736 3.99105 73.6402 3.94252C77.1607 3.86973 80.6326 3.26312 84.1532 3.53002C83.6433 3.02048 83.1334 2.51093 82.6478 2.02565C82.6478 3.02048 81.0939 5.20426 80.5841 6.24761C79.7343 7.99463 78.8602 9.74164 77.9862 11.4644C76.0924 15.1768 74.1015 18.865 71.8192 22.359C66.9634 29.8323 60.9906 35.1462 53.2213 39.4895C45.112 44.0268 36.7113 46.429 27.6308 48.0547C19.74 49.4863 10.6353 50.9421 2.84163 48.2731C3.20582 48.9039 3.54573 49.5105 3.90992 50.1414C8.57156 35.9712 19.7886 25.2464 32.341 17.7731C44.8449 10.324 59.1697 5.51969 73.6645 3.94252C75.5582 3.72414 75.5825 0.691128 73.6402 0.909505Z" fill="#DBDBDB"/>
<path d="M80.2685 2.97207C68.0317 12.9932 54.6781 21.5584 40.8631 29.2259C34.9147 32.5258 29.1605 36.0926 23.3092 39.5624C17.1908 43.1777 10.7568 46.7203 3.64292 47.8849C1.72486 48.2004 2.52608 51.1364 4.44415 50.8209C11.2909 49.6805 17.6035 46.4048 23.5277 42.9593C29.8403 39.2955 35.983 35.4132 42.3685 31.8706C56.4262 24.0576 69.9255 15.3225 82.3808 5.13159C83.9104 3.86985 81.7495 1.7346 80.2685 2.97207Z" fill="#DBDBDB"/>
<path d="M10.781 43.5415C23.1634 32.4042 35.5944 20.806 50.939 13.8421C52.7114 13.0414 51.1818 10.4209 49.4094 11.2216C33.8463 18.2825 21.1968 30.0748 8.64438 41.3819C7.18762 42.6922 9.32419 44.8275 10.781 43.5415Z" fill="#DBDBDB"/>
<path d="M37.5853 41.746C46.3987 37.888 53.901 32.1132 61.3548 26.1442C62.8844 24.931 60.7235 22.7958 59.2182 24.009C51.9344 29.8324 44.6263 35.3888 36.0557 39.1498C34.259 39.902 35.8129 42.5225 37.5853 41.746Z" fill="#DBDBDB"/>
<path d="M57.0089 15.468C60.7722 13.818 64.7298 12.6048 68.3474 10.6152C69.0758 10.2269 69.2943 9.23209 68.8815 8.52843C68.4688 7.80051 67.5219 7.58213 66.7935 7.99462C63.1759 9.98428 59.2183 11.1975 55.455 12.8475C54.7024 13.1871 54.5324 14.279 54.9209 14.9342C55.3822 15.6864 56.2563 15.7834 57.0089 15.468Z" fill="#DBDBDB"/>
<path d="M110.545 11.4646C86.1928 27.2848 63.006 56.8385 67.6191 87.5084C67.7405 88.3819 68.7603 88.6731 69.4886 88.576C78.0593 87.3871 85.8772 81.7578 92.6026 76.7108C100.032 71.1301 106.515 65.1854 111.832 57.4937C117.173 49.7777 120.451 41.9403 121.592 32.5987C122.175 27.7944 122.296 22.9415 122.296 18.0887C122.296 15.9292 122.272 13.7454 122.248 11.5859C122.223 10.0573 122.539 8.31026 121.835 6.9272C121.568 6.39339 120.718 5.9809 120.111 6.22354C116.688 7.58233 113.774 9.74184 110.545 11.4646C108.821 12.3866 110.351 15.0072 112.075 14.0851C115.061 12.508 117.78 10.4212 120.912 9.13524C120.33 8.8926 119.771 8.67422 119.188 8.43158C119.625 9.30509 119.213 12.1925 119.213 13.3815C119.237 15.4196 119.261 17.4578 119.237 19.496C119.213 23.8636 119.067 28.2311 118.533 32.5744C117.44 41.5036 114.041 49.0012 108.918 56.329C103.795 63.6325 97.4827 69.2618 90.3689 74.5513C84.0077 79.2828 76.6996 84.4996 68.6631 85.6158C69.2944 85.9797 69.9014 86.3194 70.5327 86.6834C68.3232 71.9308 73.5676 57.2995 81.4098 44.9734C89.2277 32.6957 99.8621 21.9952 112.05 14.0851C113.701 13.0175 112.172 10.397 110.545 11.4646Z" fill="#DBDBDB"/>
<path d="M117.586 9.98439C110.982 24.8826 102.703 38.9072 93.5252 52.3495C89.7377 57.8818 86.3143 63.6324 82.6967 69.2616C79.0548 74.9152 75.0729 80.69 69.5858 84.6936C68.0319 85.834 69.5372 88.4545 71.1154 87.3141C81.8954 79.4526 87.504 66.447 94.8849 55.7223C104.548 41.7219 113.313 27.0906 120.208 11.513C120.985 9.74174 118.363 8.21311 117.586 9.98439Z" fill="#DBDBDB"/>
<path d="M73.7618 77.7299C79.7345 62.3465 85.5372 46.4535 95.9774 33.4479C97.1913 31.9435 95.0548 29.784 93.8408 31.3127C83.0365 44.755 77.0152 61.0119 70.824 76.9292C70.1199 78.749 73.0577 79.5255 73.7618 77.7299Z" fill="#DBDBDB"/>
<path d="M96.6572 64.3602C102.8 56.9354 106.927 48.4672 110.909 39.7564C111.71 37.9851 109.088 36.4565 108.287 38.2278C104.427 46.6717 100.469 54.9943 94.5207 62.225C93.2824 63.7294 95.419 65.8646 96.6572 64.3602Z" fill="#DBDBDB"/>
<path d="M102.144 32.1618C104.839 28.8861 107.898 25.9259 110.302 22.4076C110.739 21.7524 110.448 20.7091 109.768 20.3209C108.991 19.9084 108.165 20.1753 107.68 20.8547C107.097 21.7282 106.612 22.359 106.005 23.1112C105.349 23.9119 104.669 24.6884 103.989 25.4649C102.654 26.9692 101.294 28.4251 100.008 29.978C99.4977 30.5846 99.352 31.5309 100.008 32.1132C100.542 32.6713 101.586 32.8169 102.144 32.1618Z" fill="#DBDBDB"/>
</svg>
