<svg width="95" height="69" viewBox="0 0 95 69" fill="none" xmlns="http://www.w3.org/2000/svg">
<path d="M56.694 0.66602C34.5977 3.06993 8.30595 15.2572 0.884578 37.8614C0.679465 38.4764 1.12698 39.0913 1.70503 39.2963C7.89572 41.4207 15.0374 40.3399 21.34 39.2404C28.8732 37.936 35.847 35.9047 42.5412 32.1218C48.7132 28.6371 53.4495 24.2952 57.3094 18.332C59.2486 15.3504 60.9268 12.2011 62.5304 9.03312C63.239 7.61687 63.9476 6.18197 64.6375 4.74708C65.1223 3.74079 65.9428 2.65996 65.9428 1.52323C65.9428 0.852368 65.402 0.40513 64.7867 0.367861C62.0643 0.144241 59.3978 0.610115 56.694 0.66602C55.2023 0.70329 55.1836 3.03266 56.694 2.99539C59.3978 2.93949 62.0643 2.47361 64.768 2.67859C64.3764 2.28726 63.9849 1.89593 63.6119 1.52323C63.6119 2.28726 62.4185 3.96441 62.027 4.76571C61.3743 6.10743 60.703 7.44915 60.0318 8.77223C58.5773 11.6234 57.0483 14.4559 55.2955 17.1393C51.5662 22.8789 46.9791 26.96 41.0122 30.2956C34.7842 33.7804 28.3324 35.6252 21.3586 36.8738C15.2984 37.9732 8.30594 39.0913 2.32036 37.0415C2.60006 37.526 2.86112 37.9919 3.14082 38.4764C6.72098 27.5935 15.3357 19.3569 24.9761 13.6173C34.5791 7.89639 45.5806 4.20666 56.7127 2.99539C58.1671 2.82768 58.1857 0.498305 56.694 0.66602Z" fill="#5B7580"/>
<path d="M61.7847 2.24977C52.3867 9.94601 42.1311 16.5242 31.5211 22.4128C26.9527 24.9472 22.5334 27.6865 18.0396 30.3513C13.3406 33.1279 8.39929 35.8486 2.93582 36.7431C1.46273 36.9853 2.07808 39.2402 3.55116 38.9979C8.80952 38.1221 13.6576 35.6063 18.2074 32.9602C23.0556 30.1463 27.7732 27.1647 32.6772 24.444C43.4736 18.4436 53.8412 11.735 63.4069 3.90828C64.5817 2.93927 62.9221 1.29938 61.7847 2.24977Z" fill="#5B7580"/>
<path d="M8.41836 33.4066C17.9282 24.8532 27.4752 15.9456 39.2599 10.5974C40.6211 9.98244 39.4464 7.96987 38.0852 8.58482C26.1327 14.0076 16.4178 23.0642 6.77745 31.7481C5.65866 32.7544 7.29956 34.3943 8.41836 33.4066Z" fill="#5B7580"/>
<path d="M29.0037 32.0279C35.7725 29.065 41.5343 24.6299 47.2588 20.0457C48.4335 19.1139 46.774 17.474 45.6179 18.4058C40.0239 22.8782 34.4112 27.1456 27.829 30.034C26.4491 30.6117 27.6425 32.6243 29.0037 32.0279Z" fill="#5B7580"/>
<path d="M43.9216 11.8464C46.8118 10.5792 49.8512 9.64748 52.6296 8.11941C53.189 7.82125 53.3568 7.05722 53.0398 6.5168C52.7228 5.95775 51.9956 5.79003 51.4362 6.10683C48.6578 7.6349 45.6184 8.56665 42.7282 9.83383C42.1501 10.0947 42.0196 10.9333 42.318 11.4364C42.6723 12.0141 43.3435 12.0887 43.9216 11.8464Z" fill="#5B7580"/>
<path d="M85.0369 8.77134C66.3343 20.9213 48.5267 43.6187 52.0696 67.1733C52.1628 67.8442 52.946 68.0678 53.5054 67.9933C60.0876 67.0802 66.0919 62.7569 71.257 58.8808C76.9629 54.5947 81.9415 50.0292 86.0251 44.1219C90.1274 38.196 92.6447 32.1769 93.5211 25.0024C93.9686 21.3127 94.0619 17.5857 94.0619 13.8587C94.0619 12.2002 94.0432 10.523 94.0246 8.86452C94.0059 7.69051 94.2483 6.34879 93.7076 5.2866C93.5025 4.87663 92.8498 4.55983 92.3837 4.74618C89.7545 5.78974 87.5169 7.44825 85.0369 8.77134C83.713 9.47947 84.8877 11.492 86.2116 10.7839C88.5052 9.57264 90.5936 7.97004 92.999 6.98238C92.5515 6.79603 92.1226 6.62832 91.6751 6.44197C92.0107 7.11282 91.6937 9.33039 91.6937 10.2435C91.7124 11.8088 91.731 13.3742 91.7124 14.9395C91.6937 18.2938 91.5818 21.6481 91.1716 24.9838C90.3325 31.8414 87.722 37.5996 83.7875 43.2274C79.8531 48.8365 75.005 53.1599 69.5415 57.2223C64.6561 60.8561 59.0434 64.8626 52.8714 65.7198C53.3562 65.9993 53.8224 66.2602 54.3072 66.5398C52.6103 55.2097 56.638 43.9728 62.6609 34.5062C68.6651 25.0769 76.8323 16.8589 86.193 10.7839C87.4609 9.96398 86.2862 7.9514 85.0369 8.77134Z" fill="#5B7580"/>
<path d="M90.4433 7.63433C85.3714 19.0762 79.0129 29.8472 71.9644 40.171C69.0555 44.4198 66.4264 48.8362 63.648 53.1596C60.851 57.5015 57.793 61.9366 53.5788 65.0114C52.3854 65.8872 53.5415 67.8998 54.7535 67.024C63.0327 60.9862 67.34 50.9979 73.0086 42.7612C80.43 32.0089 87.1615 20.772 92.4571 8.80833C93.0538 7.44797 91.04 6.27398 90.4433 7.63433Z" fill="#5B7580"/>
<path d="M56.7856 59.6656C61.3727 47.851 65.8292 35.6451 73.8473 25.6567C74.7796 24.5014 73.1387 22.8428 72.2064 24.0169C63.9086 34.3406 59.2842 46.826 54.5293 59.0506C53.9886 60.4482 56.2448 61.0445 56.7856 59.6656Z" fill="#5B7580"/>
<path d="M74.3719 49.3961C79.0895 43.6938 82.2594 37.1901 85.3175 30.5002C85.9328 29.1398 83.919 27.9658 83.3036 29.3262C80.3388 35.8112 77.2994 42.203 72.731 47.7562C71.78 48.9116 73.4209 50.5514 74.3719 49.3961Z" fill="#5B7580"/>
<path d="M78.5872 24.6653C80.657 22.1496 83.0065 19.8761 84.8525 17.174C85.1881 16.6709 84.9644 15.8696 84.4423 15.5714C83.8456 15.2546 83.2116 15.4596 82.8387 15.9814C82.3911 16.6522 82.0182 17.1367 81.552 17.7144C81.0486 18.3294 80.5265 18.9257 80.0044 19.522C78.9788 20.6774 77.9346 21.7955 76.9463 22.9881C76.5547 23.454 76.4429 24.1808 76.9463 24.628C77.3565 25.0566 78.1583 25.1684 78.5872 24.6653Z" fill="#5B7580"/>
</svg>
