<svg width="70" height="79" viewBox="0 0 70 79" fill="none" xmlns="http://www.w3.org/2000/svg">
<g id="Group">
<g id="Group_2">
<g id="Group_3">
<path id="Vector" d="M23.1606 1.07477C15.1016 4.89606 7.63781 12.2412 3.60829 20.1812C0.837994 25.65 -1.35993 34.2765 4.77593 38.4639C10.1563 42.125 17.5285 38.83 21.6725 34.8028C26.3201 30.2722 30.052 24.2084 31.815 17.9388C32.685 14.8497 33.12 11.3717 32.1126 8.23684C31.0594 4.94183 28.5868 2.74515 25.4272 1.48664C23.7101 0.800183 22.9775 3.56892 24.6717 4.25538C35.9818 8.78601 26.4117 25.1695 21.3977 30.9357C18.1695 34.6426 13.041 38.4868 7.77518 36.7707C1.77669 34.8257 3.63118 26.6111 5.66884 22.4694C9.58389 14.5294 16.5898 7.34444 24.6259 3.52315C26.2744 2.74517 24.832 0.273897 23.1606 1.07477Z" fill="#E1D4DB"/>
</g>
</g>
<g id="Group_4">
<g id="Group_5">
<path id="Vector_2" d="M24.2378 3.06461C22.4291 9.56308 18.6743 15.3064 15.2172 21.0269C14.2556 22.6058 16.7511 24.0474 17.6898 22.4685C21.2614 16.5421 25.1078 10.547 26.9852 3.81971C27.4889 2.0578 24.7186 1.27981 24.2378 3.06461Z" fill="#E1D4DB"/>
</g>
</g>
<g id="Group_6">
<g id="Group_7">
<path id="Vector_3" d="M43.0796 12.0352C43.7894 17.4124 44.6594 22.7668 45.8499 28.0755C47.2007 34.1392 48.7576 40.8665 52.3292 46.0607C53.5885 47.8913 55.2598 49.6761 57.5264 50.1337C60.022 50.6371 62.3115 49.2642 64.0286 47.5709C66.7302 44.9166 68.8823 41.3928 69.4776 37.6401C70.1645 33.3383 69.2487 28.9678 67.5315 25.0321C63.8454 16.6116 55.1911 8.1681 45.2776 10.0902C43.4689 10.4334 44.2473 13.2021 46.0331 12.8589C53.7716 11.3487 60.6401 18.076 64.0057 24.2999C65.8602 27.7322 67.0507 31.6679 66.8447 35.5807C66.6615 39.1046 65.0131 42.2165 62.7007 44.8251C61.9452 45.6717 61.098 46.5183 60.0678 47.0217C59.4267 47.3421 58.6941 47.4565 58.2133 47.365C56.6793 47.0904 55.4659 45.6488 54.5272 44.1844C51.4592 39.4478 50.0626 33.5671 48.8034 28.1441C48.0708 24.9406 47.4526 21.7142 46.9031 18.4879C46.6971 17.2294 46.491 15.9709 46.3078 14.6895C46.2392 14.1403 46.1476 13.614 46.0789 13.0649C46.0102 12.5843 45.9644 12.2182 45.9415 12.0352C45.6897 10.2275 42.8278 10.2046 43.0796 12.0352Z" fill="#E1D4DB"/>
</g>
</g>
<g id="Group_8">
<g id="Group_9">
<path id="Vector_4" d="M45.5522 12.7443C49.0093 17.9614 51.3675 23.7735 54.1378 29.3338C54.962 30.9813 57.4347 29.5397 56.6105 27.8922C53.8402 22.3319 51.482 16.5198 48.0248 11.3027C47.0174 9.76965 44.5219 11.2112 45.5522 12.7443Z" fill="#E1D4DB"/>
</g>
</g>
<g id="Group_10">
<g id="Group_11">
<path id="Vector_5" d="M29.7542 40.1802C25.1523 46.1066 20.2299 52.7882 19.1767 60.4308C18.5357 65.0987 18.8562 70.8421 21.4662 74.9151C22.5881 76.6541 24.2365 78.027 26.3658 78.1872C28.8155 78.3702 31.0135 76.9516 32.7993 75.4413C37.447 71.4828 38.8207 64.8927 38.5917 59.0578C38.3399 52.6738 36.4396 45.8092 32.3414 40.7751C31.1737 39.3564 29.159 41.3929 30.3266 42.7887C33.3259 46.4499 34.8369 51.461 35.478 56.0832C36.1648 61.0943 35.8214 66.7004 32.9366 71.0251C31.1279 73.7481 26.7321 77.4092 24.0992 73.7023C21.7868 70.476 21.5578 65.625 21.8783 61.8037C22.5194 54.4585 27.396 47.8457 31.769 42.2167C32.8909 40.7751 30.8761 38.7386 29.7542 40.1802Z" fill="#E1D4DB"/>
</g>
</g>
<g id="Group_12">
<g id="Group_13">
<path id="Vector_6" d="M29.3424 42.926C29.3424 48.2804 28.77 53.589 28.77 58.9434C28.77 60.774 31.6319 60.7969 31.6319 58.9434C31.6319 53.589 32.2043 48.2804 32.2043 42.926C32.2043 41.0726 29.3424 41.0726 29.3424 42.926Z" fill="#E1D4DB"/>
</g>
</g>
</g>
</svg>
