<svg width="129" height="140" viewBox="0 0 129 140" fill="none" xmlns="http://www.w3.org/2000/svg">
<path d="M49.6421 37.1028C37.2991 43.8892 24.7118 53.0266 17.917 65.6542C11.4645 77.6273 13.0532 90.9335 21.1922 101.743C28.598 111.584 39.4255 118.855 50.2042 124.623C62.2539 131.07 75.4767 136.16 89.0417 138.341C98.6472 139.868 109.475 140.305 117.467 133.882C124.457 128.283 127.146 119.242 128.099 110.711C129.272 100.313 128.124 89.6974 126.266 79.4451C124.555 69.823 122.404 59.7645 118.64 50.7241C113.801 39.0903 104.758 29.662 91.9014 27.4322C77.0898 24.8631 63.3782 31.0678 49.9109 36.2788C48.1023 36.9816 48.8844 39.9143 50.7175 39.2114C62.1561 34.7761 73.5947 29.4439 86.1821 29.8802C97.0341 30.2437 106.322 35.6001 112.114 44.7133C117.369 53.0266 119.642 63.085 121.769 72.586C123.822 81.8446 125.313 91.3213 125.46 100.822C125.606 109.426 124.8 118.879 120.107 126.368C115.243 134.1 106.835 136.572 98.0362 136.257C85.8643 135.845 73.7169 132.015 62.6449 127.265C51.1819 122.345 39.9388 115.995 30.7244 107.584C20.459 98.2289 13.4931 85.1651 18.6747 71.3257C24.0274 57.0015 38.2523 46.8704 51.1819 39.7447C52.9172 38.7752 51.3774 36.1576 49.6421 37.1028Z" fill="#D3CBCF"/>
<path d="M49.9108 36.2545C46.489 37.6845 42.6761 38.6782 39.0099 37.6845C35.9792 36.8604 33.535 34.7518 31.6286 32.3281C27.1802 26.6566 24.8583 19.5066 21.8764 13.0353C20.3366 9.66635 18.6502 6.32162 16.1816 3.48588C15.5705 4.26147 14.9595 5.06129 14.3485 5.86112C26.887 14.8289 45.7558 20.8639 48.151 38.2177C48.4199 40.1324 51.3529 39.3326 51.1085 37.4179C48.5665 19.0946 29.0867 12.696 15.8883 3.24351C14.3974 2.17707 12.9798 4.40689 14.0307 5.61875C18.7479 11.0721 20.8743 18.6099 23.8806 25.0085C26.7892 31.1889 30.6754 38.1935 37.6412 40.4475C41.9918 41.8533 46.6357 40.8838 50.7418 39.1872C52.5261 38.4358 51.7439 35.5031 49.9108 36.2545Z" fill="#D3CBCF"/>
<path d="M51.5243 35.2609C48.2003 24.4996 47.5648 11.9447 54.7262 2.54073C53.8463 2.54073 52.9664 2.54073 52.0865 2.54073C55.3861 7.55782 56.266 13.9564 55.9971 19.8461C55.7283 25.7357 54.1885 32.2312 49.9112 36.5697C48.5425 37.9754 50.6933 40.1083 52.062 38.7025C56.8037 33.8794 58.6368 26.8748 59.0279 20.3066C59.3945 13.7868 58.3924 6.5641 54.7017 1.01379C54.0174 -0.00416744 52.7709 0.0927811 52.062 1.01379C44.4363 11.0237 45.0229 24.6208 48.5425 36.0607C49.1535 37.927 52.1109 37.1271 51.5243 35.2609Z" fill="#D3CBCF"/>
<path d="M49.3492 37.3454C35.8087 49.7548 14.3246 47.1614 3.15486 33.0311C2.93489 33.8794 2.71492 34.7277 2.4705 35.5518C6.4789 34.2672 10.3407 32.5706 14.3491 31.3103C18.1375 30.0985 22.3903 28.9593 26.2765 30.3408C28.134 30.9952 28.9162 28.0868 27.0831 27.4081C18.7974 24.4512 9.33856 30.1469 1.63949 32.6191C0.4663 33.0069 0.246327 34.243 0.95513 35.1398C13.2003 50.6031 36.8108 52.8814 51.4757 39.454C52.9421 38.1452 50.7913 36.0123 49.3492 37.3454Z" fill="#D3CBCF"/>
<path d="M24.9073 75.0097C26.0805 77.3849 28.2558 78.9361 30.3089 80.5115C30.6022 80.7296 31.1399 80.7539 31.4821 80.6569C31.8243 80.56 32.2153 80.2934 32.3864 79.9541C32.5819 79.5905 32.6797 79.1785 32.5331 78.7907C32.4109 78.3786 32.1664 78.1363 31.8243 77.8939C31.8976 77.9424 32.1664 78.1605 31.8243 77.8939C31.7509 77.8454 31.6776 77.7727 31.6043 77.7242C31.4821 77.6273 31.3354 77.5303 31.2132 77.4334C30.9688 77.2395 30.6999 77.0456 30.4555 76.8275C30.0156 76.4639 29.5756 76.1004 29.1601 75.7126C28.9646 75.5429 28.7935 75.349 28.6224 75.1551C28.5491 75.0582 28.4513 74.9612 28.378 74.8643C28.3291 74.8158 28.2802 74.7673 28.2558 74.7188C28.0847 74.5007 28.5002 75.0339 28.3291 74.8158C28.0114 74.3795 27.7425 73.9433 27.4981 73.4827C27.1559 72.7799 26.0561 72.5133 25.3961 72.9495C24.7118 73.41 24.5163 74.2583 24.9073 75.0097Z" fill="#D3CBCF"/>
<path d="M48.8604 57.656C50.0336 58.5528 51.0357 59.6434 51.9645 60.7826C52.0133 60.8553 52.0622 60.9038 52.1111 60.9765C51.9889 60.8068 52.0378 60.8795 52.1355 61.0007C52.2578 61.1461 52.3555 61.2916 52.4777 61.437C52.6977 61.7278 52.9177 62.0429 53.1132 62.3338C53.5532 62.9639 53.9931 63.6183 54.433 64.2727C54.873 64.9271 55.8018 65.2907 56.535 64.806C57.1949 64.3939 57.5616 63.4487 57.0727 62.7216C55.3129 60.1282 53.5287 57.4379 51.0112 55.4989C50.6691 55.2323 50.3758 55.0626 49.9358 55.0626C49.5692 55.0626 49.1048 55.2323 48.8604 55.4989C48.3716 56.0563 48.2005 57.147 48.8604 57.656Z" fill="#D3CBCF"/>
<path d="M81.5629 41.9503C81.8317 42.0957 82.1006 42.2411 82.3695 42.3866C82.4917 42.4593 82.6139 42.532 82.7361 42.6289C82.8094 42.6774 82.8583 42.7259 82.9316 42.7744C82.9805 42.7986 83.176 42.9682 82.956 42.7986C82.7361 42.6289 82.9316 42.7986 82.9805 42.8228C83.0538 42.8713 83.1027 42.9198 83.176 42.9682C83.2982 43.0652 83.4204 43.1864 83.5426 43.2833C83.7626 43.4772 83.9581 43.6954 84.1537 43.9135C84.2514 44.0347 84.3492 44.1316 84.447 44.2528C84.5936 44.4467 84.447 44.2528 84.3737 44.1801C84.4225 44.2528 84.4714 44.3013 84.5203 44.374C84.6914 44.6164 84.8625 44.883 85.0336 45.1496C85.2047 45.4162 85.3513 45.707 85.498 45.9737C85.5713 46.1433 85.6446 46.2887 85.7179 46.4584C85.7668 46.5796 85.8157 46.822 85.7179 46.4342C85.7424 46.5311 85.7913 46.6038 85.8157 46.7008C85.9623 47.0886 86.1579 47.4036 86.5245 47.5975C86.8422 47.7914 87.3311 47.8641 87.6977 47.743C88.4065 47.5006 89.0664 46.6765 88.7731 45.8767C88.1865 44.3982 87.4288 43.041 86.3779 41.8291C85.4735 40.7869 84.3492 39.9386 83.1271 39.3327C82.4183 38.9691 81.4407 39.1145 81.0252 39.8659C80.6585 40.5688 80.8052 41.5625 81.5629 41.9503Z" fill="#D3CBCF"/>
<path d="M49.0312 80.6569C50.7421 82.5959 52.5264 84.5833 54.8972 85.771C55.606 86.1345 56.5837 85.9891 56.9992 85.2377C57.3658 84.5591 57.2191 83.5411 56.4614 83.1533C55.8993 82.8867 55.386 82.5474 54.8727 82.1839C54.8239 82.1596 54.775 82.1112 54.7261 82.0627C55.0683 82.2808 54.8483 82.1596 54.775 82.1111C54.6528 82.0142 54.5306 81.9173 54.4084 81.8203C54.1639 81.6264 53.944 81.4083 53.724 81.2144C52.8197 80.3661 52.0131 79.4451 51.2065 78.524C50.6933 77.9181 49.569 77.9424 49.0557 78.524C48.4446 79.1542 48.4691 80.0025 49.0312 80.6569Z" fill="#D3CBCF"/>
<path d="M73.2037 66.4298C75.0368 67.8356 76.5522 69.6534 78.0676 71.3984C78.6053 72.0044 79.7052 71.9801 80.2184 71.3984C80.805 70.7683 80.7806 69.8957 80.2184 69.2656C78.7031 67.5447 77.1877 65.7269 75.3546 64.297C75.0124 64.0303 74.7191 63.8607 74.2792 63.8607C73.9125 63.8607 73.4481 64.0303 73.2037 64.297C72.9349 64.5878 72.7393 64.9756 72.7638 65.3634C72.7638 65.7269 72.886 66.1875 73.2037 66.4298Z" fill="#D3CBCF"/>
<path d="M49.8623 103.537C53.1131 106.033 56.0705 108.893 59.3212 111.39C59.9567 111.874 60.8854 112.044 61.472 111.39C61.9853 110.856 62.1564 109.766 61.472 109.257C58.2213 106.76 55.2639 103.9 52.0132 101.404C51.3777 100.919 50.4489 100.75 49.8623 101.404C49.3735 101.937 49.2024 103.028 49.8623 103.537Z" fill="#D3CBCF"/>
<path d="M74.3527 89.5521C76.0636 90.8367 78.0189 91.7577 79.7298 93.0422C80.0231 93.2604 80.5608 93.2846 80.903 93.1877C81.2452 93.0907 81.6362 92.8241 81.8073 92.4848C82.0028 92.1212 82.1006 91.7092 81.954 91.3214C81.8317 90.9094 81.5873 90.667 81.2452 90.4246C79.5342 89.1401 77.5789 88.2191 75.868 86.9345C75.5747 86.7163 75.037 86.6921 74.6948 86.7891C74.3527 86.886 73.9616 87.1526 73.7905 87.4919C73.595 87.8555 73.4972 88.2675 73.6439 88.6553C73.7905 89.0674 74.0105 89.3097 74.3527 89.5521Z" fill="#D3CBCF"/>
<path d="M98.9898 66.3088C100.725 68.8779 102.68 71.3016 104.196 74.0162C104.587 74.719 105.613 74.9857 106.298 74.5494C107.007 74.0889 107.275 73.2163 106.836 72.465C105.296 69.7504 103.365 67.3267 101.629 64.7576C101.19 64.1032 100.261 63.7396 99.5275 64.2244C98.8921 64.6606 98.5254 65.6059 98.9898 66.3088Z" fill="#D3CBCF"/>
<path d="M79.2901 108.166C81.5143 109.863 83.3962 111.923 85.6204 113.644C85.9626 113.91 86.2559 114.08 86.6959 114.08C87.0625 114.08 87.5269 113.91 87.7713 113.644C88.2845 113.111 88.4556 112.02 87.7713 111.511C85.5471 109.814 83.6651 107.754 81.4409 106.033C81.0988 105.767 80.8055 105.597 80.3655 105.597C79.9989 105.597 79.5345 105.767 79.2901 106.033C78.8012 106.567 78.6302 107.657 79.2901 108.166Z" fill="#D3CBCF"/>
<path d="M98.5988 88.9946C100.456 91.1275 102.338 93.2119 104.318 95.2478C104.88 95.8053 105.931 95.8537 106.469 95.2478C107.031 94.6419 107.056 93.7209 106.469 93.1149C104.489 91.1032 102.607 88.9946 100.75 86.8618C100.212 86.2558 99.1121 86.2801 98.5988 86.8618C98.0122 87.4919 98.0366 88.3645 98.5988 88.9946Z" fill="#D3CBCF"/>
<path d="M102.925 117.037C104.587 118.927 106.225 120.794 107.862 122.684C108.4 123.29 109.5 123.266 110.013 122.684C110.6 122.054 110.575 121.182 110.013 120.551C108.375 118.661 106.713 116.795 105.076 114.904C104.538 114.298 103.438 114.322 102.925 114.904C102.338 115.51 102.363 116.383 102.925 117.037Z" fill="#D3CBCF"/>
<path d="M88.9927 126.732C89.5549 126.998 90.0682 127.338 90.5814 127.701C90.6303 127.725 90.6792 127.774 90.7281 127.822C90.3859 127.604 90.6059 127.725 90.6792 127.774C90.8014 127.871 90.9236 127.968 91.0458 128.065C91.2902 128.259 91.5102 128.477 91.7302 128.671C92.6345 129.519 93.4411 130.44 94.2477 131.361C94.7854 131.967 95.8852 131.943 96.3985 131.361C96.9851 130.731 96.9607 129.858 96.3985 129.228C94.6876 127.289 92.9034 125.302 90.5326 124.114C89.8237 123.751 88.8461 123.896 88.4306 124.647C88.0884 125.35 88.235 126.368 88.9927 126.732Z" fill="#D3CBCF"/>
<path d="M113.777 97.5261C114.437 98.0351 115.048 98.6168 115.561 99.2954C115.488 99.1985 115.39 99.1015 115.317 98.9803C115.952 99.8044 116.466 100.725 116.905 101.671C117.052 101.986 117.468 102.277 117.81 102.374C118.176 102.47 118.665 102.422 118.983 102.228C119.301 102.01 119.594 101.719 119.692 101.331C119.79 100.919 119.716 100.556 119.545 100.168C118.665 98.3502 117.541 96.6536 115.928 95.4175C115.586 95.1509 115.292 94.9812 114.852 94.9812C114.486 94.9812 114.021 95.1509 113.777 95.4175C113.508 95.7083 113.313 96.0961 113.337 96.4839C113.337 96.8232 113.459 97.2837 113.777 97.5261Z" fill="#D3CBCF"/>
<path d="M99.8693 44.2286C101.727 46.3615 103.34 48.7125 105.589 50.4818C105.931 50.7484 106.224 50.9181 106.664 50.9181C107.031 50.9181 107.495 50.7484 107.739 50.4818C108.253 49.9486 108.424 48.8579 107.739 48.3489C105.466 46.6038 103.878 44.2286 102.02 42.0957C101.507 41.4898 100.383 41.514 99.8693 42.0957C99.2583 42.7259 99.3072 43.5742 99.8693 44.2286Z" fill="#D3CBCF"/>
<path d="M29.8934 97.3806C31.0666 99.1257 32.5331 100.75 34.2195 102.058C34.5617 102.325 34.855 102.495 35.2949 102.495C35.6616 102.495 36.126 102.325 36.3704 102.058C36.6392 101.768 36.8348 101.38 36.8103 100.992C36.7859 100.628 36.6637 100.168 36.3704 99.9255C35.0505 98.9075 33.9018 97.6957 32.8997 96.3869C32.973 96.4838 33.0708 96.5807 33.1441 96.7019C32.9241 96.4353 32.7286 96.1687 32.5331 95.8779C32.3131 95.5386 32.0198 95.2962 31.6287 95.175C31.2621 95.0781 30.7733 95.1265 30.4555 95.3204C29.7956 95.7325 29.429 96.6777 29.8934 97.3806Z" fill="#D3CBCF"/>
<path d="M48.5421 36.3272C44.9736 32.9098 41.3074 29.5408 38.0567 25.8083C37.519 25.2024 36.4435 25.2508 35.9058 25.8083C35.2948 26.4142 35.3681 27.3352 35.9058 27.9412C39.181 31.6737 42.8228 35.0184 46.4157 38.4601C47.0023 39.0175 47.9799 39.0418 48.5665 38.4601C49.1287 37.8784 49.1531 36.8847 48.5421 36.3272Z" fill="#D3CBCF"/>
</svg>
